<svg version="1.1" id="Layer_1" xmlns="http://www.w3.org/2000/svg" xmlns:xlink="http://www.w3.org/1999/xlink" x="0px" y="0px"
	 width="100%" viewBox="0 0 1366 768" enable-background="new 0 0 1366 768" xml:space="preserve">
<path fill="#FFFFFF" opacity="1.000000" stroke="none" 
	d="
M892.000000,769.000000 
	C596.367859,769.000000 301.235718,768.991638 6.103584,769.089233 
	C2.149678,769.090515 0.864824,768.616760 0.867484,764.104675 
	C1.016529,511.300964 1.013634,258.497192 0.881978,5.693488 
	C0.879805,1.520056 1.868762,0.896563 5.805488,0.897510 
	C457.919250,1.006291 910.033081,1.005721 1362.146851,0.904420 
	C1365.984497,0.903561 1367.126221,1.370197 1367.123901,5.645784 
	C1366.985352,258.616119 1366.989014,511.586548 1367.102295,764.556885 
	C1367.104004,768.436646 1366.091675,769.090332 1362.444092,769.087952 
	C1205.796021,768.985718 1049.148071,769.000000 892.000000,769.000000 
z"/>
<path fill="#F7E5D4" opacity="1.000000" stroke="none" 
	d="
M1180.025391,444.516174 
	C1179.772217,435.167297 1177.658325,426.511871 1176.427734,417.734833 
	C1176.032227,414.913971 1174.592773,411.523560 1179.854492,410.980560 
	C1182.452759,409.062317 1185.095215,409.593445 1188.116821,409.548767 
	C1218.172363,409.192169 1247.743652,409.451416 1277.314209,409.404816 
	C1288.775879,409.386719 1300.239014,409.213013 1312.193848,409.531189 
	C1314.677368,409.483398 1316.685059,409.315033 1318.897095,410.742188 
	C1324.650269,410.208954 1324.347778,413.584656 1323.805054,417.099243 
	C1322.556763,425.183136 1321.287720,433.263794 1320.001831,441.778717 
	C1320.984619,447.605774 1319.245361,452.757202 1318.503296,457.981537 
	C1316.635376,471.130371 1314.522217,484.243347 1312.468872,497.364777 
	C1312.263184,498.680237 1312.080322,499.998474 1310.903809,501.409485 
	C1303.980225,503.439148 1297.308472,502.735138 1290.722534,502.268799 
	C1285.910889,501.928070 1281.116699,501.600037 1276.294678,501.600098 
	C1249.526611,501.600342 1222.758301,501.659698 1195.990479,501.485626 
	C1194.166260,501.473755 1192.328247,501.620911 1190.093994,500.973145 
	C1188.491577,500.242615 1187.977417,499.176819 1187.811279,498.018097 
	C1185.274536,480.321320 1181.741089,462.770691 1180.025391,444.516174 
z"/>
<path fill="#727171" opacity="1.000000" stroke="none" 
	d="
M181.462891,370.890381 
	C184.112488,377.518799 186.005875,383.675293 182.549988,390.380890 
	C180.143494,395.050323 176.413452,397.819000 171.747162,399.384918 
	C168.371323,400.517731 167.702362,402.324341 168.062119,405.705353 
	C169.155380,415.980194 170.712082,426.149780 173.988235,435.961578 
	C175.827682,441.470520 181.475616,442.671082 185.801300,445.138855 
	C193.689957,449.639282 202.466599,451.732758 211.384277,452.963806 
	C218.324982,453.921936 222.749329,457.873627 226.146820,463.622009 
	C235.490524,479.431061 238.123871,496.925385 239.307617,514.823364 
	C239.492935,517.625244 237.540924,518.582092 235.717682,519.613403 
	C227.812271,524.084717 219.002426,526.155701 210.339081,528.260681 
	C171.065125,537.803101 131.277969,537.490845 91.337601,533.884521 
	C82.575310,533.093384 73.811127,531.890747 64.970802,532.305725 
	C60.643417,532.508911 58.600677,530.960205 58.962570,526.226562 
	C59.836918,514.789856 60.373711,503.327423 61.449310,491.432343 
	C64.330002,493.483551 64.267136,496.734131 64.334427,499.865662 
	C64.473961,506.360382 64.474060,512.861023 64.342270,519.354675 
	C64.272736,522.780945 65.425339,524.546509 69.027435,524.983032 
	C72.683128,525.426086 76.312584,525.697144 79.982033,525.560242 
	C82.852951,525.453003 84.187851,524.051575 84.004822,521.096741 
	C83.449486,512.130981 82.538559,503.190857 82.336288,494.196259 
	C82.270920,491.289825 81.928413,488.268097 79.792786,485.754089 
	C78.337456,484.040833 79.161438,481.896393 79.910858,480.036224 
	C83.780884,470.430237 86.801361,460.591003 88.072273,450.248444 
	C87.754219,452.481750 86.953087,454.531677 85.555923,456.296875 
	C84.369682,457.795654 82.983131,458.991669 80.881096,458.448944 
	C78.755836,457.900208 77.461952,456.482452 76.965599,454.344360 
	C76.661858,453.035950 76.617783,451.700958 76.635864,450.368927 
	C76.750778,441.900452 76.684860,433.440063 75.489075,426.529968 
	C75.105309,432.247223 75.433388,439.494629 75.154495,446.723358 
	C75.057610,449.234436 75.120590,453.442444 72.572891,453.518616 
	C69.826767,453.600769 70.166161,449.482666 69.707069,446.982056 
	C69.475655,445.721527 69.696724,444.333130 67.997322,442.717834 
	C68.072273,447.918152 69.382629,452.065643 71.970558,455.625153 
	C74.134315,458.601166 73.998367,460.868347 71.634247,463.588989 
	C68.598518,467.082520 66.245819,471.109924 61.157692,472.322723 
	C58.662003,472.917603 59.454605,475.599945 59.549683,477.521667 
	C59.704643,480.653534 61.728920,483.531097 60.381813,487.449921 
	C54.848183,483.437439 53.422680,477.439972 54.624718,471.064178 
	C55.255882,467.716431 55.047394,465.083374 53.403458,462.169006 
	C51.124241,458.128326 49.527306,453.883392 53.953762,450.017639 
	C55.438110,448.721313 53.788033,446.367188 55.011406,445.368469 
	C58.663708,442.386719 63.854671,441.385284 66.234612,436.617767 
	C66.342789,436.401062 68.788193,437.351135 70.582520,437.888885 
	C70.669731,430.571320 71.189728,423.484558 73.494354,416.688385 
	C73.933716,415.392792 73.591698,413.227020 75.734894,413.398651 
	C77.653389,413.552246 77.504059,415.581604 77.825768,416.959839 
	C80.178482,427.039062 81.567627,437.210907 80.876610,447.608429 
	C80.751259,449.494598 80.436554,451.509705 81.442291,453.610291 
	C84.323502,451.487244 84.365898,448.044891 85.809402,445.379425 
	C86.819145,443.514893 87.446732,440.871490 90.204163,441.524872 
	C92.632133,442.100220 92.424271,444.568420 92.335014,446.561462 
	C92.172096,450.199188 91.892868,453.831757 91.637085,457.861603 
	C95.375526,456.663788 97.960083,453.980011 101.344131,452.735260 
	C105.628716,451.159210 110.199211,452.218201 114.509865,450.443207 
	C118.966217,448.608276 123.389656,446.737305 127.729637,444.648285 
	C129.713928,443.693176 131.545273,443.157654 130.361145,439.967896 
	C129.348129,437.239075 128.503128,436.527435 125.523941,437.058716 
	C118.819931,438.254211 114.701027,433.803955 111.017258,429.179871 
	C100.444962,415.908936 98.405067,400.282928 98.666481,383.993103 
	C98.783653,376.691406 98.451920,369.382874 98.352692,362.077057 
	C98.329109,360.341583 97.739700,359.161621 96.376831,357.851959 
	C91.278412,352.952789 91.047676,348.689514 95.122978,342.865906 
	C95.782867,341.922943 96.420387,341.125031 96.559395,339.823273 
	C97.505272,330.965820 104.432060,324.893127 114.309303,324.514465 
	C115.572289,324.871765 115.627686,325.571960 115.458176,326.663757 
	C115.154137,327.168610 114.979248,327.333679 114.479996,327.650879 
	C108.297279,327.500854 104.786789,330.752777 102.822090,335.776917 
	C100.764801,341.037811 103.645592,344.251526 109.183235,343.419983 
	C112.110634,342.980377 114.704491,340.953735 118.111656,341.911865 
	C117.867592,346.963348 115.517059,349.015076 110.120453,349.236908 
	C107.340294,349.351196 104.385223,348.607056 101.848160,351.258972 
	C97.812592,351.272614 99.938843,347.786407 98.174660,345.791351 
	C96.912857,348.871185 96.487907,351.176636 100.176392,352.917114 
	C101.536789,360.203156 102.240311,367.299286 102.236084,374.425446 
	C102.230270,384.251892 102.233788,394.051849 104.148308,403.755280 
	C105.763550,411.941925 109.560280,419.133240 114.300446,425.813232 
	C118.357613,431.530762 124.177574,433.061127 130.624390,430.116852 
	C142.001022,424.921173 151.941727,417.831543 159.004776,407.217987 
	C162.688339,401.682739 166.291656,396.211182 172.715714,393.140228 
	C176.878357,391.150269 178.590698,387.094696 178.484680,381.981842 
	C175.643631,382.891541 174.774231,384.777893 174.273590,387.167114 
	C173.957672,388.674835 174.484573,391.459412 171.613617,390.714539 
	C167.432526,389.629791 165.899231,387.099884 167.147003,384.136719 
	C168.347351,381.286194 170.313965,379.115082 173.100311,377.649841 
	C174.065948,377.142059 176.405823,377.203979 175.324188,375.323639 
	C174.295212,373.534851 172.234985,373.366608 170.569489,374.835205 
	C168.777710,376.415222 168.213776,378.824005 166.952911,380.771088 
	C166.075775,382.125610 165.302185,384.026489 163.184036,383.110931 
	C161.465408,382.368042 161.110641,380.631134 161.176102,378.875458 
	C161.219833,377.703156 161.454483,376.536713 161.870987,375.459778 
	C162.752029,373.181732 162.076935,371.788422 159.947113,370.586304 
	C157.307449,369.096466 155.303268,366.800629 153.717270,364.219818 
	C152.878189,362.854431 151.684036,361.392639 153.673096,359.628845 
	C154.900314,359.501221 155.757217,359.728485 156.332153,360.326935 
	C160.573013,364.740997 165.774796,366.110687 171.766998,365.829010 
	C175.619705,365.647919 178.736099,367.741241 181.462891,370.890381 
z"/>
<path fill="#DC9E98" opacity="1.000000" stroke="none" 
	d="
M1319.263428,410.596069 
	C1317.503784,411.016602 1315.691895,411.023254 1313.435791,410.997131 
	C1312.012817,410.054901 1311.041016,409.113922 1310.624512,407.811188 
	C1307.789307,398.942810 1301.016968,394.193817 1292.911011,390.845947 
	C1287.201782,388.487976 1281.335938,386.756622 1274.709961,386.518311 
	C1261.170898,382.018616 1261.170898,382.018616 1261.785156,365.994446 
	C1262.015869,364.521210 1262.410767,363.528992 1263.054688,362.226685 
	C1266.721436,358.091888 1270.133667,354.251648 1271.869385,349.240906 
	C1272.511841,347.386841 1274.009399,346.326263 1275.820679,345.712280 
	C1279.126953,344.591553 1279.665283,341.928894 1279.645508,338.934723 
	C1279.633667,337.146637 1278.795166,335.918091 1276.976685,336.079193 
	C1270.251831,336.674957 1267.414429,331.825714 1264.268921,327.301117 
	C1261.791870,323.737946 1260.398071,319.647156 1258.453247,314.925171 
	C1254.140625,324.133118 1247.643311,330.385437 1239.547974,334.964386 
	C1233.904785,338.156311 1228.115601,339.686157 1222.366333,334.372040 
	C1221.355347,326.244812 1224.632446,319.381958 1227.425293,311.650726 
	C1224.512451,319.083771 1221.710205,325.781738 1221.984131,333.603333 
	C1222.072266,335.960632 1221.176880,337.840790 1221.293945,339.847412 
	C1221.380615,341.332123 1221.098999,343.216217 1222.354492,344.037598 
	C1229.431274,348.667572 1230.840088,358.163452 1238.501465,362.738678 
	C1238.912842,363.570251 1239.067627,364.082092 1239.227295,365.020569 
	C1239.434692,367.070435 1239.385376,368.714172 1239.387451,370.356293 
	C1239.401123,381.014313 1237.988647,382.886993 1227.241821,386.055969 
	C1218.857178,387.137115 1211.226929,389.334534 1203.909668,392.740997 
	C1196.116455,396.369049 1192.064331,403.154388 1188.241943,410.689453 
	C1185.695557,410.976105 1183.399536,410.982697 1180.686035,410.972046 
	C1181.216553,399.208221 1188.250732,390.855133 1196.877563,384.244568 
	C1207.201294,376.333740 1209.642822,365.655640 1210.059692,353.925385 
	C1210.443237,343.137543 1209.976807,332.359375 1212.001831,321.619904 
	C1215.528320,302.916840 1229.171631,292.654663 1247.089722,291.117493 
	C1252.208618,290.678375 1257.454956,290.512970 1262.511963,291.618927 
	C1272.885498,293.887573 1279.746704,300.489288 1284.048218,309.987579 
	C1288.796021,320.471405 1290.378418,331.594025 1290.999512,342.972443 
	C1291.589111,353.770081 1292.606079,364.525818 1296.847534,374.684753 
	C1299.265381,380.476044 1302.859375,385.385376 1307.518311,389.522400 
	C1313.783691,395.085785 1318.440918,401.525024 1319.263428,410.596069 
z"/>
<path fill="#F9D68C" opacity="1.000000" stroke="none" 
	d="
M145.656860,87.923187 
	C154.371368,88.994316 160.324677,93.243919 163.597641,101.208771 
	C164.815674,104.172890 165.803986,107.315071 165.686172,110.329308 
	C165.306442,120.045517 166.630096,129.567307 169.109238,138.814941 
	C172.001694,149.604309 171.456619,160.408142 171.079315,171.298431 
	C170.930084,175.606216 170.992569,179.921326 170.862564,184.704132 
	C167.175003,183.539978 166.499863,179.490601 163.894760,176.928802 
	C156.974503,170.123581 150.086182,163.393082 141.096207,159.299606 
	C139.721817,158.673782 138.561447,157.703156 137.417511,156.193085 
	C132.819061,148.433960 131.739685,148.018967 123.820992,150.571609 
	C119.114395,152.088821 114.343544,153.268265 108.966713,152.818726 
	C106.280502,151.435333 106.056892,148.980286 105.248039,146.846161 
	C104.307709,144.365112 103.355499,141.856277 102.914139,139.262375 
	C101.758514,132.470688 97.861336,129.248596 91.011765,129.294495 
	C89.063675,129.307571 86.943108,129.220367 86.003571,126.546692 
	C88.660423,116.170944 92.804939,106.738075 97.102402,97.429733 
	C99.548119,92.132286 104.318100,88.973335 110.774071,88.746796 
	C113.208290,90.686844 113.810738,93.639015 116.402306,95.409882 
	C119.647423,99.174225 122.986275,99.056465 126.765594,96.873779 
	C129.316238,95.400696 131.937881,93.987831 135.101624,92.997192 
	C137.690094,92.594513 139.465057,91.354652 141.387268,89.691086 
	C142.807770,88.815826 143.978821,88.180115 145.656860,87.923187 
z"/>
<path fill="#93CFC1" opacity="1.000000" stroke="none" 
	d="
M1176.594238,109.453079 
	C1174.258301,108.739151 1173.676880,107.865341 1175.721802,106.111450 
	C1178.501587,104.079948 1181.178589,105.240692 1183.700195,105.708237 
	C1206.754639,109.982666 1229.791382,114.351959 1252.847900,118.616112 
	C1260.700073,120.068336 1263.223633,118.100357 1263.517578,110.171761 
	C1263.851685,101.157845 1260.533447,97.097221 1251.698486,95.548157 
	C1230.241333,91.785995 1208.762451,88.162598 1187.187866,85.126732 
	C1185.218994,84.849686 1183.229858,84.562302 1181.091064,83.362968 
	C1180.285889,79.087685 1183.666016,79.556961 1185.755615,79.162155 
	C1196.021118,77.222618 1206.367798,75.730965 1216.652954,73.891037 
	C1232.162842,71.116440 1247.718506,68.615173 1263.245972,65.946602 
	C1267.183838,65.269836 1271.117798,64.806625 1275.548584,65.039764 
	C1291.273071,67.738129 1306.653320,70.012268 1321.808105,73.318863 
	C1327.207642,74.496986 1327.736938,80.711540 1328.895386,85.457603 
	C1329.315674,87.179352 1329.034790,89.091888 1328.955566,90.912247 
	C1328.707764,96.613060 1327.067505,101.251976 1320.613159,102.707100 
	C1318.059082,103.282913 1315.663330,104.561745 1312.915405,105.776314 
	C1310.820557,108.181541 1308.131348,108.655113 1305.706421,109.614151 
	C1293.750610,114.342415 1281.675903,118.773468 1269.571533,124.188812 
	C1265.907959,126.082298 1262.370483,126.540894 1258.281860,126.178925 
	C1240.546021,123.047478 1223.416260,118.968384 1205.597778,116.330002 
	C1196.954956,114.690483 1188.712158,113.135468 1180.136230,111.202789 
	C1178.727051,110.776718 1177.743408,110.376404 1176.594238,109.453079 
z"/>
<path fill="#FBCEB2" opacity="1.000000" stroke="none" 
	d="
M1188.909546,499.785156 
	C1220.974365,500.037720 1252.683838,499.748779 1284.382202,500.212097 
	C1292.953613,500.337402 1301.555786,500.984589 1310.634521,500.945831 
	C1312.858765,499.498932 1314.933105,499.632660 1317.356567,499.837769 
	C1319.217285,501.519592 1321.153809,500.954529 1322.921631,500.963867 
	C1334.904175,501.027222 1346.889160,501.156616 1358.868774,500.971893 
	C1362.643799,500.913696 1364.215820,501.785126 1364.071411,505.918701 
	C1363.698242,516.607422 1365.397095,514.982666 1355.184082,514.984314 
	C1301.427124,514.993225 1247.665161,515.316589 1193.916260,514.637756 
	C1176.146362,514.413330 1158.362061,514.274536 1140.586426,513.981201 
	C1137.445190,513.929382 1136.154541,512.920471 1136.062622,509.645660 
	C1135.820679,501.002930 1136.598999,500.050476 1145.170776,500.047028 
	C1146.502197,500.046509 1147.833496,500.034454 1149.635986,500.013672 
	C1157.298828,497.177277 1164.607544,498.246338 1172.279785,499.666931 
	C1175.662842,499.975708 1178.683350,499.961334 1182.209961,499.893555 
	C1184.590576,498.429260 1186.542969,498.470947 1188.909546,499.785156 
z"/>
<path fill="#98897E" opacity="1.000000" stroke="none" 
	d="
M137.806564,155.910400 
	C147.393280,161.029907 155.992203,166.804764 163.199509,174.592041 
	C166.051270,177.673294 168.669159,180.794296 170.535156,184.924881 
	C171.148514,195.941330 161.008545,207.679108 149.564529,208.752365 
	C143.086502,209.359909 136.415924,210.021591 129.549362,207.909195 
	C127.173843,204.555359 127.933617,201.213577 128.950058,197.959061 
	C129.486740,196.240692 130.182785,194.552307 130.533890,192.791428 
	C131.112762,189.888290 129.551392,189.306244 126.740883,190.043335 
	C120.290970,191.551178 114.263145,193.316696 107.614059,193.636383 
	C104.762016,190.801575 106.734497,187.552017 106.193779,184.601044 
	C105.998306,183.534195 107.020988,181.950333 106.123535,181.309280 
	C100.643608,177.395035 104.429245,174.027328 106.714233,170.188171 
	C108.200310,167.372498 110.900703,166.161499 112.668381,163.565857 
	C115.540031,160.938232 118.416405,158.979050 121.402390,157.131470 
	C126.576843,153.929749 131.894318,153.169983 137.806564,155.910400 
z"/>
<path fill="#F6F7F6" opacity="1.000000" stroke="none" 
	d="
M1180.708984,82.594925 
	C1206.672485,86.341461 1232.158936,90.670547 1257.618896,95.159828 
	C1259.416138,95.476738 1261.167358,96.055168 1262.027832,98.005287 
	C1264.714966,104.096291 1266.123779,110.201088 1263.678345,116.827576 
	C1262.323975,120.497391 1260.195435,121.620506 1256.482422,120.900833 
	C1238.258789,117.368561 1220.020874,113.908485 1201.777832,110.477722 
	C1193.473511,108.916031 1185.145630,107.480980 1176.409180,105.960747 
	C1176.409058,98.423485 1175.188477,90.867050 1176.983154,83.121979 
	C1178.239502,82.046387 1179.265991,82.004669 1180.708984,82.594925 
z"/>
<path fill="#EAE9E5" opacity="1.000000" stroke="none" 
	d="
M1174.141113,166.986694 
	C1173.952515,158.738007 1173.974365,150.870529 1173.985596,142.539230 
	C1176.339233,140.429031 1178.814331,141.580566 1181.192871,141.912354 
	C1194.007690,143.700043 1206.784912,145.743210 1219.973389,147.843918 
	C1224.850098,149.050293 1229.436890,150.051651 1233.450928,152.288284 
	C1239.743164,155.794250 1246.149048,154.766907 1253.076904,153.699646 
	C1258.962524,154.028366 1261.825684,157.181366 1263.019653,162.296509 
	C1263.701050,165.215485 1264.504883,168.089264 1264.316895,171.137070 
	C1263.703247,181.087006 1260.352295,183.894440 1250.695435,182.064117 
	C1226.028076,177.388748 1201.352417,172.760178 1176.649780,168.275604 
	C1175.824097,168.125732 1175.042969,167.859604 1174.141113,166.986694 
z"/>
<path fill="#F6F7F6" opacity="1.000000" stroke="none" 
	d="
M1257.530640,125.133614 
	C1261.643555,125.472382 1265.139893,124.487389 1268.927124,123.323013 
	C1286.716675,118.517151 1304.679077,116.414894 1322.427246,113.159569 
	C1323.742065,112.918404 1325.065796,112.837555 1326.667603,113.702591 
	C1327.002441,121.306999 1327.004883,128.628494 1327.011841,136.410522 
	C1325.468628,138.710342 1323.179688,138.700851 1321.117554,139.114853 
	C1297.065430,143.943634 1273.008667,148.749405 1248.949097,153.541000 
	C1246.354248,154.057800 1243.755981,154.817551 1240.849365,153.176971 
	C1240.063110,144.983154 1240.362061,137.114182 1241.145996,128.836716 
	C1246.118286,125.079422 1251.650146,125.328644 1257.530640,125.133614 
z"/>
<path fill="#CECECF" opacity="1.000000" stroke="none" 
	d="
M113.187485,163.936905 
	C112.488007,166.895462 109.826256,167.616348 108.174522,169.734314 
	C106.329002,171.482758 104.387268,171.136398 102.438690,170.823898 
	C97.778603,170.076538 93.123634,169.300674 88.084610,168.404236 
	C86.895302,168.373337 86.120270,168.253540 84.981308,168.038452 
	C83.682175,167.734985 82.783249,167.370346 81.472321,167.225739 
	C80.668274,167.120422 80.214424,167.038147 79.433098,166.857391 
	C78.245537,166.527634 77.393326,166.257996 76.162262,166.152740 
	C75.382080,166.067245 74.939186,165.994659 74.170395,165.828705 
	C72.552010,165.337128 71.224602,165.178421 69.531792,165.157715 
	C68.728088,165.101776 68.271828,165.030716 67.479134,164.850067 
	C66.465919,164.552017 65.815735,164.280273 64.848854,163.843384 
	C64.131561,163.421494 63.778839,163.107224 63.280109,162.444550 
	C61.076061,157.241318 59.980003,151.982437 57.185722,147.009735 
	C56.920071,146.493484 56.841492,146.272964 56.851204,145.712585 
	C55.445278,139.822006 53.886726,134.287567 52.475716,128.715775 
	C51.178448,123.593124 51.784103,123.248161 57.021240,123.791092 
	C66.369316,124.760193 75.755653,125.360130 85.584122,126.134933 
	C89.095192,129.666443 93.523903,127.562180 97.211105,128.781769 
	C99.892288,129.668625 101.460823,130.609970 102.296860,133.337173 
	C104.178688,139.475861 106.341759,145.528336 108.668976,151.849518 
	C111.325653,155.548569 111.993034,159.644440 113.187485,163.936905 
z"/>
<path fill="#98897E" opacity="1.000000" stroke="none" 
	d="
M63.492897,161.780914 
	C63.930153,162.392654 64.180580,162.692047 64.663612,163.170593 
	C65.396217,163.608368 65.882080,163.901276 66.733109,164.011597 
	C67.451942,164.050308 67.889236,164.068954 68.651421,164.136322 
	C70.336937,164.988571 71.841301,165.046921 73.683395,165.043472 
	C74.433708,165.078217 74.860687,165.100189 75.603439,165.179810 
	C76.636139,165.802032 77.465904,166.008987 78.688148,166.015411 
	C79.441963,166.046432 79.868896,166.070038 80.611725,166.150803 
	C81.637680,166.792847 82.465050,167.009766 83.697212,166.980621 
	C84.765656,167.009613 85.505959,167.044235 86.613068,167.132721 
	C92.489784,168.326767 96.852547,171.005447 99.283585,176.308212 
	C99.871712,177.591095 101.069405,178.182541 102.211754,178.902542 
	C103.805458,179.906982 106.941612,179.960358 106.526756,182.359299 
	C105.917458,185.882645 107.087112,189.778244 104.621368,192.949554 
	C103.726837,194.100067 102.549789,194.572083 100.737419,194.266541 
	C97.165581,193.312515 94.161278,189.716370 90.613792,193.668854 
	C88.580551,195.934235 87.196869,198.111465 89.397774,201.036377 
	C90.079933,201.942932 90.648781,202.986420 90.133598,204.501190 
	C87.392693,204.818359 84.787132,205.336227 82.374481,203.152390 
	C81.369026,202.526581 80.587563,202.148499 80.211143,201.378174 
	C76.730141,194.254501 70.746376,190.150772 63.262978,187.286987 
	C51.482567,183.710785 40.538330,168.407089 41.904510,158.741165 
	C42.282070,156.069855 42.577114,153.512634 44.683533,151.190643 
	C45.818474,150.196396 46.620026,149.369598 47.779228,148.420471 
	C48.339237,148.038284 48.631466,147.874008 49.176689,147.691757 
	C50.324558,147.667786 50.880520,147.010361 51.798103,146.391434 
	C53.315502,145.346024 54.754211,145.288818 56.577362,145.355331 
	C56.939503,145.372726 56.892242,145.728012 56.925022,145.904190 
	C60.223022,150.735703 61.000458,156.417358 63.492897,161.780914 
z"/>
<path fill="#98897E" opacity="1.000000" stroke="none" 
	d="
M111.177246,84.690887 
	C108.644020,85.456245 106.109818,84.064865 103.951141,86.388237 
	C102.847557,87.576004 101.956100,85.863571 101.635437,84.795143 
	C101.014000,82.724503 100.431549,80.620529 100.103302,78.488731 
	C99.642921,75.498711 99.068260,73.134483 95.700768,71.589424 
	C92.617180,70.174622 92.294205,66.517403 92.591522,63.199814 
	C93.978882,47.719559 108.345177,34.959293 123.959061,35.403908 
	C130.660278,35.594727 135.250046,39.184689 138.020920,45.007042 
	C142.222229,53.835087 144.093399,63.258209 144.762070,72.992599 
	C145.106308,78.004196 142.056564,79.747803 137.917877,81.313072 
	C137.022614,83.364204 135.677780,83.914024 133.557709,83.624664 
	C131.887009,82.390305 130.806320,81.061386 129.582855,79.423027 
	C130.224274,75.441582 131.985428,72.711502 135.756851,71.514084 
	C137.715714,70.892159 138.727768,69.283875 138.372238,67.241051 
	C137.948517,64.806168 136.083786,65.578827 134.431900,65.658455 
	C129.822968,65.880630 125.267357,65.010811 120.583786,65.356499 
	C116.661079,65.646011 114.653343,61.598251 111.791000,58.781597 
	C110.971344,61.319687 111.240929,63.832130 110.498024,66.130363 
	C109.915543,67.932335 109.344818,69.731438 107.157013,69.985405 
	C103.654648,70.391998 104.412613,72.043159 105.373856,74.427353 
	C106.863991,78.123360 111.106026,80.088097 111.177246,84.690887 
z"/>
<path fill="#A0B7D7" opacity="1.000000" stroke="none" 
	d="
M1173.626709,166.761490 
	C1193.884155,170.212631 1213.840088,173.807877 1233.790405,177.433014 
	C1241.248901,178.788315 1248.718384,180.101212 1256.133423,181.667908 
	C1258.698730,182.209946 1259.957886,181.009460 1260.872070,179.142548 
	C1264.465210,171.804565 1263.121948,164.620697 1259.730713,157.680725 
	C1258.594360,155.355515 1255.821533,155.537201 1253.229492,154.940979 
	C1252.894775,153.715256 1253.753296,153.151276 1254.725098,152.934280 
	C1260.659180,151.609314 1266.529663,149.851929 1273.082031,150.223373 
	C1275.028076,153.010971 1272.541626,153.339035 1271.191772,154.018906 
	C1265.463257,156.904068 1265.540039,156.830368 1266.829224,163.277740 
	C1267.814697,168.205444 1267.425781,173.172455 1266.217407,179.218063 
	C1272.438477,176.817505 1278.132080,174.947922 1283.392090,172.046005 
	C1285.442261,170.914948 1285.371338,168.403290 1285.662476,166.244736 
	C1286.461670,160.315781 1284.448120,154.777802 1283.543457,148.717377 
	C1284.719360,146.785400 1286.450928,146.586624 1288.057861,146.278549 
	C1298.693604,144.239258 1309.330811,142.207397 1319.949951,140.082535 
	C1321.595581,139.753250 1323.255737,139.599075 1325.170654,140.651489 
	C1326.502441,143.942978 1327.082275,146.989731 1326.991089,150.211594 
	C1326.769653,158.044769 1325.182251,160.310989 1318.020020,163.104111 
	C1300.247681,170.035019 1282.496094,177.019775 1264.760254,184.043671 
	C1261.468506,185.347321 1258.395996,185.919815 1254.690430,185.175369 
	C1228.555420,179.924683 1202.353271,175.008713 1176.196899,169.861832 
	C1174.974731,169.621323 1171.627075,170.428101 1173.626709,166.761490 
z"/>
<path fill="#E7B983" opacity="1.000000" stroke="none" 
	d="
M181.924866,370.980621 
	C177.159851,367.705048 172.110077,366.392761 166.461243,366.746704 
	C161.297150,367.070282 158.163895,363.256012 154.350128,360.186646 
	C153.437790,359.427673 153.292877,358.711700 153.536896,357.568604 
	C155.849670,355.194489 157.679871,356.876801 159.553619,357.797089 
	C162.658905,359.322205 165.768814,360.711517 169.541885,358.958252 
	C157.990204,359.035126 151.534058,348.712219 141.176910,345.645447 
	C137.780426,342.277771 135.473221,338.053345 130.102325,337.295380 
	C132.620575,333.733673 136.709473,332.953735 141.771957,334.846466 
	C146.801651,336.727020 151.080261,339.970795 155.683380,342.624176 
	C158.599442,344.305084 161.584381,345.634857 165.225220,344.766968 
	C157.188843,343.650360 151.258560,338.074768 144.050507,335.183014 
	C136.187271,332.028503 129.454559,333.567383 123.143448,339.522644 
	C121.370377,340.060181 120.084091,339.715302 118.522263,338.731171 
	C112.003723,333.591217 115.932144,327.755859 121.328194,326.210175 
	C127.517525,324.437286 133.746094,322.713135 140.336029,324.434021 
	C143.686813,325.309021 147.189117,325.469116 151.064133,325.849823 
	C156.049789,326.265289 160.122360,327.923035 163.967377,330.940704 
	C172.461441,337.928772 179.036285,345.725403 180.794601,356.707947 
	C181.107666,358.663391 182.057297,360.455902 182.906631,362.640686 
	C183.039566,365.585266 183.641830,368.239929 181.924866,370.980621 
z"/>
<path fill="#727171" opacity="1.000000" stroke="none" 
	d="
M20.801804,364.978668 
	C17.941860,359.874237 18.796595,355.428162 21.904009,351.200531 
	C32.518692,336.759125 58.878925,331.040344 74.448021,339.801636 
	C86.936882,346.829590 88.824547,360.157043 78.669464,370.158295 
	C77.350418,371.457306 77.432808,372.722473 77.784035,374.227753 
	C78.765884,378.435608 81.288872,381.684906 84.180649,384.737579 
	C85.042572,385.647430 86.436890,386.571259 85.533974,388.110657 
	C84.671188,389.581604 83.244385,388.848297 81.931396,388.778961 
	C74.437286,388.383545 69.293793,384.007629 65.028336,378.511963 
	C63.370007,376.375336 62.078999,375.843323 59.350639,376.206451 
	C47.284752,377.812469 35.877262,375.589020 25.315327,369.346283 
	C23.538244,368.295898 22.080467,367.033966 20.801804,364.978668 
z"/>
<path fill="#A2D9CC" opacity="1.000000" stroke="none" 
	d="
M1181.135742,82.440910 
	C1180.060059,82.820648 1179.060669,82.843529 1177.696045,82.861694 
	C1176.481445,81.879662 1174.461426,81.785271 1174.563599,80.268028 
	C1174.692627,78.351166 1176.836426,78.569954 1178.079102,78.197800 
	C1199.148804,71.887558 1220.270996,65.752510 1241.337646,59.432362 
	C1245.299805,58.243687 1248.908081,59.768661 1252.591187,60.285778 
	C1260.251343,61.361290 1267.823975,63.060673 1275.707153,64.780197 
	C1266.803711,66.700844 1257.636108,68.406197 1248.445312,69.976181 
	C1229.640381,73.188507 1210.811523,76.262672 1192.020752,79.554428 
	C1188.392334,80.190033 1184.483398,79.851746 1181.135742,82.440910 
z"/>
<path fill="#F4DCCF" opacity="1.000000" stroke="none" 
	d="
M90.100693,205.082520 
	C89.914375,203.726929 89.445908,202.917358 88.849640,202.072159 
	C85.831482,197.794083 88.020111,192.117233 93.098068,190.453720 
	C95.920929,189.528961 97.251694,191.951355 99.609772,192.889130 
	C102.192894,195.686981 104.268974,193.214279 106.680664,193.002762 
	C113.378853,191.847137 119.821678,190.479813 126.671280,189.150253 
	C129.318130,189.758148 129.853745,191.334473 129.439056,193.364883 
	C129.141861,194.819962 129.091415,196.391373 128.418289,197.695557 
	C126.635040,201.150650 126.341949,204.672394 127.238525,208.650604 
	C119.131920,208.953522 111.205620,208.762955 103.296585,209.049225 
	C98.460892,209.224274 94.176346,208.225494 90.100693,205.082520 
z"/>
<path fill="#71AD9B" opacity="1.000000" stroke="none" 
	d="
M1318.004272,499.756409 
	C1315.869873,500.873230 1313.904785,501.074158 1311.496826,500.934875 
	C1312.016235,487.988861 1314.878662,475.326752 1316.566284,462.497162 
	C1317.431519,455.919525 1318.560547,449.376587 1319.773438,442.514771 
	C1325.013306,456.067139 1329.306763,470.088013 1327.639160,485.102356 
	C1326.947144,491.333740 1323.861938,496.318237 1318.004272,499.756409 
z"/>
<path fill="#F4DCCF" opacity="1.000000" stroke="none" 
	d="
M111.348938,84.983047 
	C109.911293,80.785461 105.575905,78.880989 104.179787,74.848106 
	C103.105438,71.744705 100.094101,68.433846 106.783699,68.955688 
	C108.744896,69.108688 108.817451,67.651054 109.390480,66.146545 
	C110.560593,63.074398 109.288269,59.525715 111.209259,56.704529 
	C112.472069,56.845970 112.596909,57.828758 113.147942,58.386669 
	C116.037781,61.312565 117.680672,65.450706 123.732887,63.787041 
	C127.713692,62.692776 132.458481,65.491341 137.049133,63.569405 
	C138.391922,63.007229 139.563202,64.914215 139.820847,66.477516 
	C140.228073,68.948318 139.627258,72.093880 137.387833,72.360344 
	C133.327438,72.843483 132.251434,75.932808 130.009659,78.576859 
	C126.745018,82.240273 122.481194,83.819374 118.452530,86.397011 
	C117.420158,86.805634 116.702026,86.841393 115.655563,86.469276 
	C114.479355,84.913841 113.114914,84.971291 111.348938,84.983047 
z"/>
<path fill="#71AD9B" opacity="1.000000" stroke="none" 
	d="
M1189.206299,499.607574 
	C1187.338013,499.992371 1185.406738,499.940826 1183.095947,499.864746 
	C1171.382812,491.944336 1171.608643,480.529724 1173.739624,468.871521 
	C1175.231201,460.711456 1177.625122,452.716309 1179.825073,444.362457 
	C1182.696899,451.767242 1183.094604,459.872314 1184.353760,467.816620 
	C1186.009033,478.258850 1187.552246,488.718872 1189.206299,499.607574 
z"/>
<path fill="#F9D68C" opacity="1.000000" stroke="none" 
	d="
M1274.355713,151.087189 
	C1267.118652,151.285507 1260.309814,153.066986 1253.126953,154.651428 
	C1241.373779,159.355972 1231.981812,151.782715 1221.387939,149.338806 
	C1209.330444,145.808228 1198.154785,140.874924 1186.612671,136.075699 
	C1185.620850,135.181030 1184.890625,134.458908 1184.012329,134.084732 
	C1175.308472,130.376801 1172.256592,124.004295 1174.797485,114.682182 
	C1175.229980,113.095062 1175.699463,111.518059 1176.231934,109.555649 
	C1177.106445,109.311279 1177.901123,109.447647 1178.919800,109.804726 
	C1180.761108,113.100403 1179.174561,116.234352 1179.242310,119.339851 
	C1179.420776,127.527245 1179.701416,128.276367 1187.136230,131.225464 
	C1203.393066,137.673874 1219.749878,143.868225 1235.980713,150.383331 
	C1237.515503,150.999405 1239.190430,151.339554 1240.687988,152.854370 
	C1253.170654,152.070480 1264.986328,148.753616 1277.000977,146.534561 
	C1293.419434,143.502121 1309.782471,140.169189 1326.592773,136.918060 
	C1327.898682,137.246643 1328.960449,137.563934 1328.763672,138.796677 
	C1328.529907,140.262054 1326.939453,139.833115 1325.795410,140.707794 
	C1313.109497,142.100128 1301.126343,145.512955 1288.882812,147.466278 
	C1287.414673,147.700500 1285.959839,148.018524 1284.191040,148.532898 
	C1282.648071,150.635513 1280.530273,150.482651 1278.365723,151.082733 
	C1277.321655,151.230209 1276.624390,151.287979 1275.587646,151.419556 
	C1275.015259,151.425034 1274.786987,151.395737 1274.355713,151.087189 
z"/>
<path fill="#DC9E98" opacity="1.000000" stroke="none" 
	d="
M1172.632812,499.632996 
	C1165.436279,499.993286 1158.229980,499.996460 1150.565430,499.999603 
	C1150.442749,498.022919 1150.610107,495.991241 1152.275391,494.150665 
	C1153.602783,492.502808 1155.509766,493.294800 1156.833008,492.337372 
	C1155.785767,492.089752 1154.814087,492.078247 1153.701904,491.404541 
	C1153.976562,489.509308 1154.502808,487.831848 1155.268311,486.036774 
	C1155.822632,485.417175 1157.505981,485.817688 1156.279907,484.249146 
	C1157.422485,478.763702 1158.829346,473.551849 1157.490967,467.913666 
	C1156.960449,465.679047 1156.986816,463.761627 1154.283447,463.140381 
	C1153.330811,462.921448 1152.564209,461.989838 1152.735229,460.854797 
	C1152.958862,459.370636 1154.192749,459.200348 1155.396362,459.192688 
	C1159.226074,459.168243 1163.055908,459.166992 1166.885742,459.185089 
	C1167.853760,459.189667 1169.080688,458.994293 1169.398926,460.229492 
	C1169.760376,461.632843 1168.770386,462.578186 1167.554321,462.677795 
	C1164.035522,462.966095 1164.241577,465.329315 1163.861938,467.960754 
	C1162.322144,478.633789 1168.775879,487.045441 1171.544189,496.486542 
	C1171.823853,497.439789 1172.259888,498.347168 1172.632812,499.632996 
z"/>
<path fill="#727171" opacity="1.000000" stroke="none" 
	d="
M204.752762,417.443481 
	C205.367310,420.224854 205.581665,422.803955 202.457626,423.335388 
	C199.239395,423.882812 197.521637,421.597137 196.897644,418.809082 
	C196.273468,416.020264 196.441223,413.203491 198.344177,410.736176 
	C199.251266,409.560059 200.121689,408.283783 200.666077,406.916443 
	C201.510864,404.794525 201.858505,402.494781 198.985931,401.600037 
	C196.561188,400.844788 195.295258,402.348877 194.644745,404.511108 
	C194.549042,404.829224 194.460373,405.152649 194.407074,405.479889 
	C194.046005,407.697083 193.199493,409.264130 190.500046,408.840454 
	C187.667297,408.395844 187.215088,406.312225 187.170212,404.065430 
	C187.046265,397.860687 192.425308,392.906769 198.875122,393.180939 
	C204.663391,393.427002 209.488434,399.163513 208.900238,405.175842 
	C208.637329,407.863251 207.773804,410.373962 206.169296,412.574097 
	C205.179367,413.931519 204.144135,415.240387 204.752762,417.443481 
z"/>
<path fill="#F9D68C" opacity="1.000000" stroke="none" 
	d="
M1327.264648,113.809036 
	C1311.957520,116.482002 1296.919189,119.005005 1281.869507,121.456940 
	C1277.946777,122.096039 1274.078735,123.202431 1269.624756,123.037323 
	C1283.212280,116.771866 1297.574341,111.393700 1312.292847,106.041641 
	C1316.838623,108.371513 1321.709961,108.759689 1326.071045,110.633347 
	C1327.387939,111.199135 1330.021362,111.188942 1327.264648,113.809036 
z"/>
<path fill="#F4DCCF" opacity="1.000000" stroke="none" 
	d="
M132.645905,83.105392 
	C134.295547,82.802155 135.641785,82.301460 137.333939,81.702866 
	C137.765671,82.514015 137.851517,83.423065 137.961761,84.786682 
	C138.571304,88.183510 137.525253,90.814583 136.138382,93.698311 
	C132.709488,95.406502 129.447037,96.643311 126.449982,98.346970 
	C122.376617,100.662437 118.961662,100.643913 115.934799,96.239174 
	C114.490074,93.503128 115.575981,91.365532 116.810791,88.927338 
	C120.033325,86.871902 122.575867,84.513512 125.408226,82.544762 
	C127.928734,80.792793 130.153381,80.391151 132.645905,83.105392 
z"/>
<path fill="#A0B7D7" opacity="1.000000" stroke="none" 
	d="
M1185.992432,135.835815 
	C1196.962158,138.093185 1206.518799,143.143417 1216.593628,146.775116 
	C1217.987427,147.277512 1219.330444,147.920197 1220.901611,148.810486 
	C1205.665283,146.786087 1190.224365,144.449112 1174.379150,142.093781 
	C1171.970459,139.993149 1173.501587,139.401749 1175.302124,138.889145 
	C1178.726318,137.914291 1182.144409,136.917587 1185.992432,135.835815 
z"/>
<path fill="#F4DCCF" opacity="1.000000" stroke="none" 
	d="
M62.963715,187.412750 
	C72.505447,188.124664 77.931908,194.249939 81.951767,202.608917 
	C76.516548,204.577179 71.063225,204.089676 65.308434,201.905426 
	C62.348228,199.330276 59.669575,196.940308 57.956631,193.444275 
	C59.574970,191.237320 62.221321,190.374710 62.963715,187.412750 
z"/>
<path fill="#727171" opacity="1.000000" stroke="none" 
	d="
M151.272552,325.575928 
	C149.353210,328.052460 146.786987,327.187317 144.475067,326.571442 
	C137.015823,324.584320 129.669693,325.123749 122.352028,327.132843 
	C115.979691,328.882385 114.563881,332.850433 118.788277,337.614685 
	C118.815018,338.504608 118.531075,338.971863 117.675056,339.475616 
	C110.939774,337.944763 109.793839,333.072998 114.739502,327.262329 
	C115.039543,326.967163 115.014160,326.988647 115.002052,327.000061 
	C115.462540,326.555908 115.895271,326.055267 116.783981,325.632782 
	C128.382538,320.626770 139.693558,319.813171 151.272552,325.575928 
z"/>
<path fill="#727171" opacity="1.000000" stroke="none" 
	d="
M183.083923,362.634949 
	C179.910507,362.391571 180.137741,359.487854 179.834900,357.533020 
	C178.275467,347.467010 172.672256,339.992615 165.311188,333.502991 
	C164.846313,333.093170 164.604477,332.430420 164.200836,331.571411 
	C173.706955,333.921448 184.716110,350.555237 183.083923,362.634949 
z"/>
<path fill="#CECECF" opacity="1.000000" stroke="none" 
	d="
M127.332047,208.839310 
	C127.636108,206.086746 124.892807,206.254654 123.435188,205.260040 
	C126.756271,202.114853 129.023163,192.908188 127.222610,189.465134 
	C132.046021,187.964767 133.071350,188.758331 131.658600,193.039169 
	C130.151718,197.605179 128.739685,202.150711 129.097198,207.413605 
	C128.638672,208.104660 128.125916,208.420181 127.332047,208.839310 
z"/>
<path fill="#727171" opacity="1.000000" stroke="none" 
	d="
M206.974243,434.794312 
	C203.547501,435.912720 201.962692,434.313873 201.287140,431.534485 
	C200.754364,429.342590 201.492126,427.589844 203.705261,426.717529 
	C205.885986,425.858002 207.751862,426.514435 208.827347,428.478119 
	C210.130081,430.856781 209.197906,432.930450 206.974243,434.794312 
z"/>
<path fill="#CECECF" opacity="1.000000" stroke="none" 
	d="
M57.721474,193.237457 
	C60.229420,195.893188 63.392128,197.841583 64.929611,201.494583 
	C62.379101,202.227417 60.011948,201.442963 58.000263,200.151825 
	C55.138496,198.315063 53.756062,195.954666 57.721474,193.237457 
z"/>
<path fill="#E7B983" opacity="1.000000" stroke="none" 
	d="
M118.215302,88.281784 
	C116.506859,90.486198 116.625381,92.956299 115.821884,95.542130 
	C113.058388,94.605148 111.898476,92.182838 111.100334,89.224800 
	C112.317627,88.204964 113.542809,87.454277 115.052452,86.494858 
	C115.999840,86.258400 116.662773,86.230667 117.660889,86.231155 
	C118.528099,86.757591 118.621765,87.364059 118.215302,88.281784 
z"/>
<path fill="#E7B983" opacity="1.000000" stroke="none" 
	d="
M136.212280,93.948608 
	C135.821152,91.122353 136.444122,88.429512 137.824097,85.555450 
	C138.659164,85.278687 139.332169,85.316116 140.336029,85.421249 
	C142.427292,86.263885 143.123962,87.526489 142.220535,89.734848 
	C140.822205,92.254349 138.878265,93.348312 136.212280,93.948608 
z"/>
<path fill="#98897E" opacity="1.000000" stroke="none" 
	d="
M1153.260010,491.427460 
	C1155.540161,491.515442 1159.379761,489.913422 1159.348755,492.312286 
	C1159.307983,495.482605 1155.457520,493.286163 1152.985840,493.936462 
	C1152.753662,493.193909 1152.911621,492.431030 1153.260010,491.427460 
z"/>
<path fill="#F4DCCF" opacity="1.000000" stroke="none" 
	d="
M142.312225,90.003174 
	C142.133362,88.608749 141.820938,87.278427 140.814346,85.788361 
	C142.890488,84.573799 143.870621,86.897232 145.773682,87.618645 
	C145.241379,89.153145 143.921326,89.512566 142.312225,90.003174 
z"/>
<path fill="#98897E" opacity="1.000000" stroke="none" 
	d="
M1155.927246,484.354187 
	C1157.501831,484.212982 1159.036255,483.586548 1160.558472,484.770294 
	C1159.559692,486.700928 1157.786255,485.772186 1155.946045,485.940460 
	C1155.598511,485.494507 1155.689819,485.069885 1155.927246,484.354187 
z"/>
<path fill="#B1998B" opacity="1.000000" stroke="none" 
	d="
M47.726280,148.216858 
	C47.882496,149.667587 47.131268,150.623276 45.328388,150.977905 
	C45.262096,149.611252 46.123814,148.738739 47.726280,148.216858 
z"/>
<path fill="#BFADA2" opacity="1.000000" stroke="none" 
	d="
M116.902863,325.250885 
	C116.580200,326.006256 116.055214,326.453735 115.260086,326.956360 
	C114.937103,326.411102 114.884254,325.810730 114.750793,324.920166 
	C115.413231,324.304413 116.089584,324.411591 116.902863,325.250885 
z"/>
<path fill="#B1998B" opacity="1.000000" stroke="none" 
	d="
M51.726276,146.186554 
	C51.840622,147.256866 51.303551,147.910446 49.785435,147.749725 
	C50.088497,147.169510 50.747311,146.665237 51.726276,146.186554 
z"/>
<path fill="#727171" opacity="1.000000" stroke="none" 
	d="
M61.028088,490.985657 
	C60.677963,490.228546 60.307434,489.480347 59.923874,488.407715 
	C59.910839,488.083282 59.948364,488.062073 59.954849,488.041992 
	C61.774551,487.926147 61.599072,489.139862 61.221737,490.668304 
	C60.968929,491.016571 61.007683,490.994537 61.028088,490.985657 
z"/>
<path fill="#71AD9B" opacity="1.000000" stroke="none" 
	d="
M1274.972900,386.290649 
	C1281.126709,384.400543 1286.238647,387.253876 1291.364014,388.935730 
	C1301.947998,392.408752 1309.796143,399.021759 1312.937744,410.606018 
	C1271.636841,410.996887 1230.282349,411.029449 1188.459717,411.015778 
	C1190.183594,401.410431 1196.063232,394.971191 1204.850464,390.953705 
	C1211.199219,388.051025 1217.849243,386.217834 1225.103394,385.129456 
	C1228.765503,388.228363 1231.026245,392.247864 1235.231323,394.662354 
	C1248.276611,402.152618 1263.825806,399.515015 1273.226318,387.813538 
	C1273.643433,387.294373 1274.079346,386.802704 1274.972900,386.290649 
z"/>
<path fill="#B1998B" opacity="1.000000" stroke="none" 
	d="
M1252.498535,452.142212 
	C1254.244507,454.569885 1253.151367,456.167603 1251.440918,457.390717 
	C1250.105347,458.345795 1248.939209,457.451416 1248.026245,456.426666 
	C1246.936523,455.203308 1246.618408,453.753723 1247.610229,452.378784 
	C1248.904663,450.584259 1250.539795,450.486328 1252.498535,452.142212 
z"/>
<path fill="#EAE9E5" opacity="1.000000" stroke="none" 
	d="
M119.678375,529.322510 
	C111.255791,529.043884 103.295982,528.770386 95.337883,528.453979 
	C92.676605,528.348083 91.079933,527.858032 90.872017,524.240967 
	C90.120224,511.161560 89.089157,498.060852 85.124008,485.442474 
	C84.316223,482.871857 85.070099,480.682007 85.737823,478.236694 
	C91.986595,455.352814 96.554398,456.492188 116.141632,454.933472 
	C118.425804,454.751678 119.673592,455.356873 120.103264,458.074097 
	C121.347839,465.944580 123.060448,473.739960 124.495789,481.581940 
	C125.188217,485.365021 126.734802,486.046204 129.769501,483.535583 
	C134.879288,479.308258 140.271271,475.400848 145.158966,470.936646 
	C147.140228,469.127045 147.839066,468.673035 150.118057,470.597656 
	C158.282303,477.492554 168.647842,478.228333 178.603729,479.870453 
	C181.682709,480.378296 181.441391,477.225983 181.559540,475.638977 
	C182.151657,467.686493 182.630524,459.686340 180.541351,451.842590 
	C180.065811,450.057159 179.669434,448.326385 180.154297,445.910004 
	C186.516312,450.258179 193.279404,453.206757 200.490311,455.042358 
	C204.026505,455.942596 207.592133,456.798645 211.193924,457.353546 
	C217.029724,458.252655 220.647873,461.802948 223.256561,466.744720 
	C229.218338,478.038452 233.040482,489.969696 233.990036,502.757751 
	C234.063934,503.753052 234.123108,504.751923 234.257202,505.739899 
	C235.460251,514.602722 235.506882,514.739014 226.769913,517.429504 
	C220.270203,519.431030 213.651169,521.049744 207.066544,522.767090 
	C205.693054,523.125305 203.759323,523.775940 204.079590,521.124939 
	C205.217453,511.706390 203.352493,502.272705 204.539734,492.799530 
	C205.214798,487.413239 206.945312,482.148193 206.579941,476.596161 
	C203.131622,483.582611 201.112915,490.937683 200.981949,498.731110 
	C200.864594,505.713440 200.877563,512.701721 201.031647,519.682983 
	C201.098083,522.692566 200.081528,524.204956 196.997711,524.742371 
	C181.438171,527.453857 165.818649,529.532776 149.990189,529.409607 
	C140.040466,529.332214 130.087662,530.216370 119.678375,529.322510 
z"/>
<path fill="#E8E7E3" opacity="1.000000" stroke="none" 
	d="
M117.641037,339.295929 
	C118.047523,338.646362 118.245094,338.375488 118.683212,338.017944 
	C119.983101,338.292603 121.042450,338.653931 122.439316,339.032135 
	C125.048943,338.470245 126.623016,336.105743 129.551331,336.686310 
	C135.545990,336.148682 138.333115,339.886292 140.826416,344.433441 
	C143.180161,347.023254 146.694443,347.696228 148.806641,350.775818 
	C149.415710,351.482056 149.764572,351.987213 150.368347,352.653503 
	C150.708008,352.985443 150.845337,353.114410 151.187286,353.432556 
	C151.523468,353.749756 151.655014,353.877686 151.973297,354.202881 
	C152.277466,354.534698 152.394928,354.669281 152.685760,355.004028 
	C152.978745,355.332275 153.098389,355.460388 153.403687,355.774231 
	C153.708862,356.088135 153.828369,356.216370 154.084656,356.569122 
	C154.166168,357.584656 154.110901,358.375641 154.080460,359.564911 
	C154.028564,363.673218 157.429779,368.450745 162.076065,370.138733 
	C164.466797,371.007263 165.080933,371.733551 163.598816,373.807831 
	C163.408951,374.073547 163.222610,374.400787 163.194550,374.713867 
	C162.969269,377.228088 160.767044,380.817108 163.657913,381.920593 
	C166.251526,382.910614 166.070496,378.741516 167.217178,376.942810 
	C168.540955,374.866333 169.206482,372.074280 172.300552,372.094696 
	C175.737137,372.117310 177.477539,374.485748 179.201233,377.661438 
	C172.399536,377.854553 169.003235,381.445465 166.930801,388.216309 
	C171.456131,384.738129 171.049454,388.766846 172.266006,390.767975 
	C173.117188,385.753448 172.853348,380.523193 179.280045,379.854095 
	C180.737473,386.329407 179.353790,391.300079 173.451218,394.315216 
	C167.481018,397.364929 163.729965,402.146637 160.369034,407.399750 
	C153.406113,418.282898 143.488251,425.537018 132.149841,431.103638 
	C124.191238,435.010925 116.794418,432.802887 111.905563,425.221252 
	C104.413712,413.602936 100.920883,400.915710 101.034920,387.036804 
	C101.126312,375.914093 100.458206,364.785126 100.332825,353.221710 
	C100.419403,352.389832 100.446701,352.002747 100.854172,351.464294 
	C102.276543,348.196625 103.808220,346.794952 107.718994,347.739990 
	C111.805702,348.727539 115.938210,347.600830 117.762115,342.506897 
	C117.293709,341.379730 117.151199,340.555084 117.641037,339.295929 
z"/>
<path fill="#E8E7E3" opacity="1.000000" stroke="none" 
	d="
M61.250504,491.275696 
	C60.838905,490.116699 60.708878,489.216827 60.270088,488.169434 
	C60.215855,483.281799 57.406601,479.061035 57.601444,474.359436 
	C57.684586,472.353210 56.722183,469.503265 61.028988,470.426422 
	C63.281647,470.909271 65.643471,469.202972 67.114632,466.966492 
	C68.206337,465.306793 69.229927,463.470825 70.716110,462.231873 
	C73.150772,460.202057 73.394875,459.590118 70.800667,456.757965 
	C67.461609,453.112701 66.557571,447.537537 65.750999,442.447113 
	C65.620079,441.620819 65.740555,439.654877 67.472069,440.122894 
	C68.859665,440.498016 71.037071,440.459656 70.902237,442.920441 
	C70.708900,446.449036 71.549614,449.819824 72.539360,453.995087 
	C74.991669,443.136169 72.147438,432.574951 75.541153,421.746643 
	C78.208946,430.999756 77.847588,439.698303 78.034584,448.370941 
	C78.102936,451.541351 76.060791,456.227661 80.998802,457.221313 
	C85.505745,458.128265 85.202477,453.018097 87.015381,450.574707 
	C87.656685,449.710327 87.944969,448.584045 88.800385,447.722931 
	C88.789307,456.414215 87.391220,464.774902 84.155273,472.799988 
	C83.163536,475.259430 82.020676,477.681030 81.304474,480.220795 
	C80.780869,482.077515 76.855507,485.172577 82.694176,485.595642 
	C82.926773,485.612457 83.113754,487.372498 83.185150,488.330536 
	C84.023735,499.584778 84.883293,510.837891 85.627922,522.098511 
	C85.864182,525.671387 85.146744,527.820984 80.357689,527.377502 
	C75.433517,526.921448 70.487396,526.295349 65.529938,526.123840 
	C62.701363,526.025940 62.970829,524.208069 62.969406,522.335938 
	C62.963844,515.020264 63.044601,507.701019 62.830891,500.390778 
	C62.744293,497.428680 61.985172,494.486237 61.250504,491.275696 
z"/>
<path fill="#E8E7E3" opacity="1.000000" stroke="none" 
	d="
M154.309998,455.721069 
	C145.177917,461.486633 145.189362,461.477142 138.629120,453.553925 
	C136.665619,451.182495 136.245468,449.470428 139.015564,446.914612 
	C149.747574,437.012909 158.517944,425.629974 163.578796,411.706696 
	C163.878082,410.883240 163.935440,409.653809 165.699753,409.510651 
	C166.265274,414.682953 165.511749,419.957306 166.733276,425.097137 
	C167.542770,428.503357 168.156204,431.983002 169.785202,435.067596 
	C171.378998,438.085571 170.992249,440.340881 168.075806,442.568176 
	C166.882401,445.806366 164.274582,447.520325 162.305328,450.146790 
	C161.975388,450.592285 161.835983,450.763336 161.462433,451.164490 
	C160.551651,451.922729 159.802032,452.347809 158.877243,453.083557 
	C158.449158,453.414062 158.273514,453.542877 157.824615,453.855225 
	C156.593842,454.609406 155.712082,455.312622 154.309998,455.721069 
z"/>
<path fill="#DDBDD3" opacity="1.000000" stroke="none" 
	d="
M167.674042,445.438416 
	C175.726425,441.632690 175.573212,441.662170 177.298584,450.631317 
	C178.653717,457.675873 179.004745,464.745667 178.916779,471.878479 
	C178.878342,474.994019 178.099594,476.436951 174.420303,475.455658 
	C168.991745,474.007782 163.357834,473.287476 158.098038,471.211487 
	C149.563065,467.842865 148.808838,465.315216 154.110092,457.627808 
	C154.855682,455.611176 156.505356,454.781921 157.756256,453.205872 
	C157.971634,452.966614 158.000610,452.998779 157.985275,452.984619 
	C158.783310,452.362335 159.832413,452.147797 160.773041,451.186157 
	C160.976135,450.959259 161.000717,450.999969 160.980621,450.987305 
	C163.051285,449.107880 164.888168,446.947235 167.674042,445.438416 
z"/>
<path fill="#DDBDD3" opacity="1.000000" stroke="none" 
	d="
M125.235474,450.370728 
	C126.614372,449.693909 127.798065,449.351135 128.673431,448.632690 
	C130.810623,446.878571 131.845154,447.424896 133.070312,449.812653 
	C135.631760,454.804688 138.032104,459.969147 142.638397,463.586060 
	C144.331238,464.915314 143.984879,466.243622 142.617722,467.792847 
	C140.488663,470.205353 132.567398,476.582794 128.237106,478.895172 
	C126.143265,470.531097 124.477119,462.138855 121.303375,454.163391 
	C120.146095,451.255188 123.331947,451.410828 125.235474,450.370728 
z"/>
<path fill="#E7B983" opacity="1.000000" stroke="none" 
	d="
M117.492332,338.869629 
	C117.866737,339.730804 117.883522,340.544403 117.830200,341.759827 
	C114.621498,343.051971 111.527565,344.181885 108.333969,344.777161 
	C103.370018,345.702454 100.842293,343.313080 100.983894,338.248962 
	C101.167267,331.691132 107.381142,326.421844 114.669800,326.962097 
	C111.535439,334.254761 111.923172,336.448639 117.492332,338.869629 
z"/>
<path fill="#E8E7E3" opacity="1.000000" stroke="none" 
	d="
M57.562595,451.825867 
	C57.728817,450.213470 57.693642,448.869446 57.934856,447.576965 
	C58.553143,444.264160 61.505035,446.192627 63.272720,445.492065 
	C65.351135,444.668457 64.917404,447.033905 64.853462,448.084991 
	C64.634613,451.682587 65.342659,455.061859 67.189735,458.081543 
	C68.456551,460.152588 67.723900,461.884766 66.269707,462.849670 
	C64.328751,464.137543 64.026695,461.628937 63.147324,460.683563 
	C60.959900,458.331970 60.163334,455.182587 58.381134,452.257294 
	C57.888550,452.098145 57.687820,452.107910 57.562595,451.825867 
z"/>
<path fill="#E8E7E3" opacity="1.000000" stroke="none" 
	d="
M57.973122,451.952515 
	C58.105820,457.162506 59.566254,461.922668 62.517811,467.412628 
	C55.476318,463.078552 53.370052,455.830261 57.294662,451.683105 
	C57.638103,451.534027 57.856960,451.816681 57.973122,451.952515 
z"/>
<path fill="#E7B983" opacity="1.000000" stroke="none" 
	d="
M100.734154,351.125000 
	C101.026649,351.717499 100.943855,352.128601 100.699783,352.662109 
	C98.655403,353.473755 96.579292,354.375885 96.159180,351.262268 
	C95.816109,348.719696 95.054764,345.770050 97.980995,344.222168 
	C99.386589,343.478638 101.123482,343.966461 100.547028,346.248077 
	C100.145103,347.838898 99.396561,349.330811 100.734154,351.125000 
z"/>
<path fill="#98897E" opacity="1.000000" stroke="none" 
	d="
M167.996399,444.974915 
	C166.441879,447.868225 164.061157,449.424164 161.308792,450.963989 
	C161.628647,447.200256 165.317703,445.880127 167.595306,443.017303 
	C167.916916,443.425201 167.942261,443.988464 167.996399,444.974915 
z"/>
<path fill="#98897E" opacity="1.000000" stroke="none" 
	d="
M157.650360,452.964600 
	C158.419891,455.419739 156.314102,455.984192 154.619873,457.217499 
	C154.245239,457.087524 154.179565,456.821533 154.042740,456.150146 
	C154.722504,454.372955 156.027603,453.669983 157.650360,452.964600 
z"/>
<path fill="#FBCEB2" opacity="1.000000" stroke="none" 
	d="
M1222.604980,333.798035 
	C1228.822021,338.427826 1234.516113,336.835388 1239.970825,333.360504 
	C1244.017456,330.782623 1247.954590,327.981506 1251.106812,324.277771 
	C1254.115479,320.742920 1256.242188,316.625183 1258.808105,311.846588 
	C1260.878662,317.754395 1262.452148,323.193268 1265.894409,327.603088 
	C1268.796997,331.321472 1270.977539,336.670380 1277.575439,334.418060 
	C1279.027466,333.922394 1280.008545,335.305878 1280.627319,336.492401 
	C1282.103882,339.323395 1280.773438,345.581299 1277.879150,346.178650 
	C1273.512817,347.079773 1272.729126,350.323273 1271.381592,353.348816 
	C1269.842285,356.805084 1267.363892,359.400269 1264.239990,361.923340 
	C1257.168335,368.328979 1247.038696,368.935760 1238.320801,363.311218 
	C1232.638794,359.929779 1228.646851,355.686920 1226.724121,349.644135 
	C1226.443237,348.761749 1225.774170,347.805450 1225.008911,347.306305 
	C1219.432129,343.669312 1218.817871,341.977875 1220.962402,334.827484 
	C1221.135864,333.759308 1221.536011,333.464813 1222.604980,333.798035 
z"/>
<path fill="#FBCEB2" opacity="1.000000" stroke="none" 
	d="
M1275.082153,385.883026 
	C1269.554688,397.077759 1259.796631,400.771851 1248.324707,400.009735 
	C1238.527466,399.358795 1229.932373,395.763794 1225.551270,385.458435 
	C1227.380371,384.527222 1229.289795,383.976074 1231.192261,383.401703 
	C1235.883301,381.985413 1238.500610,379.141113 1238.062988,373.919067 
	C1237.841431,371.275574 1238.023804,368.598206 1238.020996,365.472473 
	C1238.557617,364.571564 1239.188843,364.308258 1239.832153,364.617188 
	C1247.346436,368.226410 1254.826416,367.148071 1262.657227,364.696899 
	C1263.014648,365.228119 1263.061035,365.567230 1263.012695,365.892273 
	C1261.554810,375.699829 1263.150024,383.669006 1275.082153,385.883026 
z"/>
<path fill="#B1998B" opacity="1.000000" stroke="none" 
	d="
M1263.138672,364.621216 
	C1254.957764,368.705811 1246.878662,369.331909 1238.390381,365.044861 
	C1238.014893,364.566956 1238.011597,364.125153 1238.015625,363.352386 
	C1246.544556,366.211121 1254.996094,367.383850 1263.581787,362.115173 
	C1263.714111,362.838470 1263.489502,363.592651 1263.138672,364.621216 
z"/>
<path fill="#98897E" opacity="1.000000" stroke="none" 
	d="
M1222.977539,333.591248 
	C1222.547485,334.121918 1222.114502,334.217133 1221.354858,334.382202 
	C1220.850342,324.406097 1224.593384,312.745605 1230.064575,307.922760 
	C1226.582520,316.595825 1223.038208,324.425446 1222.977539,333.591248 
z"/>
<path fill="#98897E" opacity="1.000000" stroke="none" 
	d="
M1217.041016,329.595490 
	C1215.935059,326.415619 1215.556885,323.592224 1216.942261,319.169342 
	C1218.118286,324.140167 1218.991089,327.733459 1219.781616,331.344727 
	C1219.848267,331.649353 1219.359985,332.395020 1219.135986,332.392365 
	C1217.594849,332.373932 1217.755859,330.834778 1217.041016,329.595490 
z"/>
<path fill="#98897E" opacity="1.000000" stroke="none" 
	d="
M1278.343994,331.607727 
	C1280.075195,327.955353 1279.898926,324.181885 1280.479492,319.287048 
	C1283.034912,326.185699 1281.958130,330.662415 1278.343994,331.607727 
z"/>
<path fill="#F4DCCF" opacity="1.000000" stroke="none" 
	d="
M113.523384,164.197861 
	C110.445648,161.001953 109.672852,156.950424 108.963676,152.476303 
	C114.537346,151.736481 119.969070,150.654068 125.275253,148.828064 
	C131.974182,146.522781 135.654373,148.484070 138.035767,155.826782 
	C128.193939,153.315781 120.818550,158.074646 113.523384,164.197861 
z"/>
<path fill="#EAE9E5" opacity="1.000000" stroke="none" 
	d="
M1240.968262,152.702209 
	C1229.230591,149.911179 1218.282593,144.612350 1206.910400,140.450638 
	C1199.734985,137.824768 1192.695312,134.830399 1185.568848,132.067917 
	C1178.276978,129.241333 1177.916870,128.715195 1177.827393,120.706322 
	C1177.790039,117.359253 1177.967285,114.062927 1179.087646,110.443817 
	C1187.600098,111.029984 1195.867920,113.012825 1204.551025,114.911674 
	C1216.003540,117.601830 1226.725098,121.351120 1237.489136,124.959297 
	C1239.043823,125.480431 1240.674561,125.910370 1241.882935,127.692230 
	C1241.730835,136.129013 1242.724365,144.252335 1240.968262,152.702209 
z"/>
<path fill="#C4E8DD" opacity="1.000000" stroke="none" 
	d="
M1266.422363,120.267143 
	C1268.326172,112.339905 1269.489624,104.725555 1265.640747,97.230042 
	C1264.685791,95.370148 1266.152710,94.821861 1267.371094,94.398994 
	C1272.549683,92.601395 1277.744751,90.845772 1282.971436,89.194435 
	C1285.126221,88.513641 1286.707153,89.137680 1287.748535,91.455872 
	C1290.553467,97.698845 1290.429443,104.011917 1288.688721,110.435837 
	C1288.156006,112.401955 1286.645874,113.413902 1284.862915,114.056068 
	C1278.798340,116.240280 1272.721802,118.391296 1266.422363,120.267143 
z"/>
<path fill="#F9D68C" opacity="1.000000" stroke="none" 
	d="
M1242.444336,128.032379 
	C1229.822510,123.881508 1217.624023,119.702629 1205.181274,115.251617 
	C1217.066040,116.234108 1228.853271,119.370636 1240.821655,121.510376 
	C1246.315918,122.492661 1251.775879,123.667999 1257.604248,124.913651 
	C1253.095337,126.913284 1247.931885,127.203590 1242.444336,128.032379 
z"/>
<path fill="#B1998B" opacity="1.000000" stroke="none" 
	d="
M1241.000000,511.858826 
	C1206.862793,511.907440 1173.254395,510.430389 1139.573975,510.347046 
	C1140.832275,508.504059 1142.513428,508.945618 1144.020874,508.946533 
	C1185.673584,508.971222 1227.326172,509.020813 1268.978882,509.104584 
	C1270.179810,509.106995 1272.212524,508.346741 1272.364624,510.063416 
	C1272.551270,512.172180 1270.367432,511.820007 1268.991455,511.827942 
	C1259.827881,511.880829 1250.663818,511.857574 1241.000000,511.858826 
z"/>
<path fill="#B1998B" opacity="1.000000" stroke="none" 
	d="
M1290.000000,504.925995 
	C1314.108765,504.925934 1337.717529,504.925934 1361.326294,504.925934 
	C1361.320801,505.446014 1361.315308,505.966064 1361.309814,506.486145 
	C1322.414185,506.486145 1283.518555,506.486145 1244.622925,506.486145 
	C1244.616333,505.966125 1244.609863,505.446075 1244.603271,504.926056 
	C1259.568848,504.926056 1274.534424,504.926056 1290.000000,504.925995 
z"/>
<path fill="#B1998B" opacity="1.000000" stroke="none" 
	d="
M1210.484741,505.926544 
	C1201.379883,505.905151 1192.716553,505.899475 1184.053711,505.846161 
	C1182.643311,505.837463 1180.519775,506.091827 1180.698242,504.078461 
	C1180.848145,502.385162 1182.919800,503.110596 1184.097412,503.153381 
	C1193.229004,503.485168 1202.405884,502.203918 1211.496094,503.888458 
	C1212.346802,504.046051 1213.828125,503.808777 1213.207397,505.383392 
	C1213.043335,505.799408 1211.718384,505.757843 1210.484741,505.926544 
z"/>
<path fill="#B1998B" opacity="1.000000" stroke="none" 
	d="
M1339.262817,509.964630 
	C1343.960449,509.964966 1348.193481,509.964966 1352.426636,509.964966 
	C1352.423706,510.443329 1352.420776,510.921661 1352.417847,511.400024 
	C1346.500732,511.400024 1340.583496,511.400024 1334.113281,511.400024 
	C1335.611816,509.413574 1337.349609,510.167145 1339.262817,509.964630 
z"/>
<path fill="#B1998B" opacity="1.000000" stroke="none" 
	d="
M106.949661,192.799194 
	C104.723503,194.378357 102.592804,196.580048 99.991211,193.401062 
	C102.796677,194.059647 104.266914,192.674744 104.829132,190.023392 
	C105.306053,187.774353 104.869392,185.432327 105.720963,183.167908 
	C106.409828,181.336121 104.660385,181.016922 103.426575,180.681122 
	C100.450539,179.871170 98.586555,178.508896 97.248802,175.240997 
	C95.626686,171.278381 91.487190,169.184357 87.169533,167.470947 
	C93.706123,168.131027 100.432350,169.075485 107.588051,170.021088 
	C108.035339,171.919189 106.331581,172.762497 105.520958,174.147156 
	C104.383392,176.090271 102.924553,177.640564 106.382301,179.550446 
	C110.210236,181.664810 105.959175,185.852997 107.377159,189.019394 
	C107.772461,189.902100 107.129791,191.249649 106.949661,192.799194 
z"/>
<path fill="#98897E" opacity="1.000000" stroke="none" 
	d="
M82.879807,143.024261 
	C84.723587,145.977264 85.614830,148.948410 82.227478,150.508087 
	C79.001411,151.993500 77.558540,149.094482 76.515709,146.585419 
	C75.729271,144.693222 76.226364,142.948853 77.949699,141.780960 
	C79.766411,140.549789 81.384583,140.997559 82.879807,143.024261 
z"/>
<path fill="#B1998B" opacity="1.000000" stroke="none" 
	d="
M63.728672,161.715225 
	C59.800194,157.722214 59.597477,151.763184 57.017368,146.442780 
	C60.168667,147.449570 60.014423,150.790482 61.102737,153.353210 
	C62.196476,155.928711 62.901981,158.669083 63.728672,161.715225 
z"/>
<path fill="#B1998B" opacity="1.000000" stroke="none" 
	d="
M73.752365,164.779999 
	C72.336525,166.629913 70.808296,166.124466 69.158287,164.461304 
	C70.502098,164.028091 72.030289,163.836914 73.752365,164.779999 
z"/>
<path fill="#B1998B" opacity="1.000000" stroke="none" 
	d="
M83.798721,166.723816 
	C82.971085,168.209091 81.979591,168.341019 81.005295,166.507660 
	C81.809105,166.296204 82.690598,166.384445 83.798721,166.723816 
z"/>
<path fill="#B1998B" opacity="1.000000" stroke="none" 
	d="
M78.791519,165.766922 
	C77.952904,167.210693 76.963203,167.317078 75.999832,165.531891 
	C76.802155,165.328629 77.685081,165.419815 78.791519,165.766922 
z"/>
<path fill="#B1998B" opacity="1.000000" stroke="none" 
	d="
M66.828201,163.790161 
	C66.265442,164.990952 65.607460,164.940506 64.969673,163.601608 
	C65.478058,163.416031 66.059898,163.482361 66.828201,163.790161 
z"/>
<path fill="#BFADA2" opacity="1.000000" stroke="none" 
	d="
M118.326157,88.617210 
	C117.993591,87.958008 117.992355,87.392059 117.993599,86.542747 
	C120.936821,82.659088 125.326134,81.252159 129.457123,78.893211 
	C130.651215,80.262985 133.523987,79.900879 132.960144,82.906570 
	C128.945923,81.115547 125.922630,82.947929 122.967484,85.578476 
	C121.653229,86.748360 120.685905,88.492401 118.326157,88.617210 
z"/>
<path fill="#8C9CB6" opacity="1.000000" stroke="none" 
	d="
M1273.937988,151.119919 
	C1274.152588,150.807938 1274.372192,150.780716 1274.474365,150.823166 
	C1275.223389,150.703613 1275.865845,150.522369 1276.786621,150.203186 
	C1279.070312,149.610565 1281.091797,149.223801 1283.498291,148.802551 
	C1284.916138,151.902405 1286.473877,154.968948 1286.888916,158.183044 
	C1288.498047,170.643906 1287.160889,172.601089 1275.444214,177.032181 
	C1272.660156,178.085037 1269.928833,179.276413 1267.167236,180.389328 
	C1265.160400,181.198135 1263.809692,181.293945 1264.710571,178.385864 
	C1266.786499,171.685211 1266.917358,165.018738 1263.782593,158.577652 
	C1262.548828,156.042343 1264.205322,155.337936 1265.932007,154.561432 
	C1268.485840,153.412766 1271.406860,153.175323 1273.937988,151.119919 
z"/>
<path fill="#727171" opacity="1.000000" stroke="none" 
	d="
M130.109711,336.599060 
	C127.639099,337.713440 125.453957,338.561798 123.022820,339.229553 
	C128.945236,331.641235 136.616745,330.202911 146.466309,334.901855 
	C153.148087,338.089508 159.093704,343.002960 166.967300,343.304749 
	C167.754089,343.334930 168.661682,343.753815 168.538895,344.828461 
	C168.419296,345.875061 167.414108,345.856537 166.664215,346.143585 
	C162.838730,347.607666 159.449677,346.076019 156.210495,344.405548 
	C153.415466,342.964142 150.798981,341.159027 148.173599,339.409637 
	C142.686676,335.753357 136.949463,333.733368 130.109711,336.599060 
z"/>
<path fill="#727171" opacity="1.000000" stroke="none" 
	d="
M148.972168,352.307556 
	C146.274597,349.102905 142.728439,347.640259 139.459610,345.773926 
	C139.399353,345.739532 139.392319,345.444000 139.460770,345.383057 
	C139.681595,345.186584 139.949417,345.042908 140.522919,344.822510 
	C147.162262,345.382782 151.407928,349.918945 156.372803,353.053619 
	C160.071487,355.388855 163.876785,357.154510 168.326355,357.286530 
	C169.673309,357.326477 171.837112,356.547180 171.753647,358.829315 
	C171.677841,360.902008 169.842682,361.687775 167.791901,361.583618 
	C163.006378,361.340546 159.069061,358.822662 154.583588,356.798157 
	C154.221436,356.793671 154.153824,356.826233 154.134460,356.858368 
	C153.468506,356.473755 152.953079,355.907776 152.207642,355.172943 
	C152.014542,354.962067 151.995712,354.998505 152.015320,354.992645 
	C151.792847,354.774506 151.559387,354.553101 151.154999,354.161346 
	C150.975433,354.000092 150.991669,354.010101 150.997162,354.017883 
	C150.403870,353.507538 149.682709,353.124084 148.972168,352.307556 
z"/>
<path fill="#E7B983" opacity="1.000000" stroke="none" 
	d="
M78.000259,383.621979 
	C72.203201,383.517975 68.603828,379.600464 65.830818,375.338470 
	C63.922493,372.405487 61.898376,371.791016 58.894791,371.997498 
	C48.949497,372.681213 39.391197,371.088379 30.259321,367.012451 
	C22.153872,363.394653 21.068230,357.921051 27.232151,351.483368 
	C37.556606,340.700378 59.086128,336.820374 72.232323,343.373535 
	C78.045563,346.271332 81.436989,352.397217 81.041542,358.871918 
	C80.839981,362.171967 79.342018,364.476318 76.649338,366.245209 
	C72.441917,369.009125 71.660515,372.484161 74.194008,376.761444 
	C75.463959,378.905487 76.787735,381.017670 78.000259,383.621979 
z"/>
<path fill="#E7B983" opacity="1.000000" stroke="none" 
	d="
M78.102425,383.907532 
	C78.267563,384.065796 78.367531,384.285950 78.467499,384.506104 
	C78.339348,384.474670 78.211205,384.443237 77.998207,384.255737 
	C77.913353,384.099701 78.037247,383.969421 78.102425,383.907532 
z"/>
<path fill="#A0B7D7" opacity="1.000000" stroke="none" 
	d="
M1276.708252,149.990479 
	C1276.462646,150.302856 1275.876465,150.608353 1274.933350,150.889709 
	C1275.173462,150.571609 1275.770630,150.277618 1276.708252,149.990479 
z"/>
<path fill="#CECECF" opacity="1.000000" stroke="none" 
	d="
M66.545639,198.469818 
	C66.578178,198.524200 66.513092,198.415421 66.545639,198.469818 
z"/>
<path fill="#727171" opacity="1.000000" stroke="none" 
	d="
M118.836090,408.845093 
	C124.906761,404.840759 128.842453,405.278595 131.857605,409.988525 
	C134.116760,413.517548 133.009109,416.020844 128.904327,416.493408 
	C125.729271,416.858887 122.633369,416.052032 119.681229,415.142151 
	C115.978119,414.000824 117.731918,411.367401 118.836090,408.845093 
z"/>
<path fill="#727171" opacity="1.000000" stroke="none" 
	d="
M119.341599,386.362000 
	C122.097267,379.432281 123.389565,372.624023 123.394501,365.558563 
	C124.191116,373.320984 124.841644,381.082977 121.597038,388.499786 
	C120.547661,390.898499 121.692390,392.624603 122.676239,394.566956 
	C123.160126,395.522278 124.145264,396.954407 122.914886,397.719177 
	C121.445061,398.632812 120.559570,397.080414 119.785484,396.052826 
	C117.559349,393.097687 117.321480,389.969971 119.341599,386.362000 
z"/>
<path fill="#727171" opacity="1.000000" stroke="none" 
	d="
M145.366013,365.158295 
	C140.608002,362.928284 136.301910,359.590363 129.851456,362.141632 
	C131.673767,357.958527 134.480835,357.437988 137.144867,358.005554 
	C140.968536,358.820190 144.992279,359.919098 145.366013,365.158295 
z"/>
<path fill="#727171" opacity="1.000000" stroke="none" 
	d="
M112.475189,377.504517 
	C115.847603,375.034973 116.403984,377.466583 116.609070,379.660583 
	C116.770378,381.386292 117.911308,383.996277 114.935844,384.450806 
	C112.312248,384.851593 111.792870,382.543335 111.546982,380.584290 
	C111.435486,379.695953 112.001335,378.722595 112.475189,377.504517 
z"/>
<path fill="#727171" opacity="1.000000" stroke="none" 
	d="
M113.586617,364.450165 
	C110.637543,365.072540 109.414055,367.571350 106.984360,368.952972 
	C106.841743,364.030243 110.132721,362.220917 113.616425,360.777252 
	C114.830742,360.274017 116.572739,360.823547 116.770317,362.322968 
	C117.013550,364.168762 115.012856,363.795166 113.586617,364.450165 
z"/>
<path fill="#727171" opacity="1.000000" stroke="none" 
	d="
M136.854187,379.819397 
	C136.506470,381.542908 136.754074,383.619995 134.568100,383.200348 
	C132.301315,382.765137 132.219406,380.625275 132.472992,378.827911 
	C132.664398,377.471375 132.665665,375.214935 134.404633,375.299438 
	C136.513779,375.401978 136.847672,377.560638 136.854187,379.819397 
z"/>
<path fill="#727171" opacity="1.000000" stroke="none" 
	d="
M136.591980,409.423401 
	C139.806549,409.988708 142.499344,415.343994 140.943375,417.973145 
	C140.725311,418.341583 140.014786,418.836029 139.843765,418.736572 
	C139.331223,418.438385 138.745377,417.939362 138.593460,417.403778 
	C137.875153,414.871246 137.291931,412.300385 136.591980,409.423401 
z"/>
<path fill="#98897E" opacity="1.000000" stroke="none" 
	d="
M113.989700,416.736603 
	C113.189690,419.352356 112.431648,419.135468 111.865196,417.062042 
	C111.121910,414.341400 112.365196,411.018463 115.424782,408.023376 
	C114.897751,411.137939 114.457405,413.740204 113.989700,416.736603 
z"/>
<path fill="#98897E" opacity="1.000000" stroke="none" 
	d="
M108.621643,381.941864 
	C108.589745,384.021393 107.701584,385.649567 106.061180,384.911224 
	C103.804420,383.895538 106.908005,381.413605 105.317093,379.692688 
	C104.721771,379.048706 105.540657,378.059662 106.528404,378.235626 
	C108.337128,378.557892 108.804970,379.889099 108.621643,381.941864 
z"/>
<path fill="#98897E" opacity="1.000000" stroke="none" 
	d="
M144.198563,381.098999 
	C143.030762,380.588440 141.587341,380.166687 143.030441,379.118286 
	C144.806580,377.827911 146.795670,378.287842 148.541000,379.517029 
	C149.225922,379.999420 149.960403,380.946533 149.212326,381.510498 
	C147.723083,382.633240 146.085953,381.705383 144.198563,381.098999 
z"/>
<path fill="#98897E" opacity="1.000000" stroke="none" 
	d="
M147.389679,373.788452 
	C147.695145,374.165039 147.797928,374.334473 147.768707,374.476837 
	C147.235062,377.076599 145.270569,377.074493 143.269501,376.848724 
	C142.939880,376.811493 142.352646,376.117310 142.423386,375.921112 
	C143.228851,373.687897 145.092606,373.432678 147.389679,373.788452 
z"/>
<path fill="#E7B983" opacity="1.000000" stroke="none" 
	d="
M152.035217,355.293762 
	C153.045883,354.827942 153.775436,355.206543 154.125809,356.550781 
	C153.126434,356.960846 152.388519,356.623047 152.035217,355.293762 
z"/>
<path fill="#E7B983" opacity="1.000000" stroke="none" 
	d="
M148.817719,352.489746 
	C149.409500,352.596802 150.119781,353.007111 150.916351,353.721558 
	C150.022491,354.103180 149.379730,353.615112 148.817719,352.489746 
z"/>
<path fill="#E7B983" opacity="1.000000" stroke="none" 
	d="
M151.037262,354.265259 
	C151.286453,354.153870 151.597473,354.307648 151.971710,354.724121 
	C151.722977,354.834656 151.411026,354.682526 151.037262,354.265259 
z"/>
<path fill="#727171" opacity="1.000000" stroke="none" 
	d="
M70.923309,475.919861 
	C71.522606,472.005829 71.825119,468.354462 75.851913,465.756744 
	C75.337181,470.666626 73.593712,474.867615 74.511459,479.283905 
	C74.608147,479.749146 74.105026,480.669769 73.665253,480.847565 
	C72.723907,481.228241 72.170357,480.372925 71.881409,479.632782 
	C71.467232,478.571930 71.240913,477.437775 70.923309,475.919861 
z"/>
<path fill="#98897E" opacity="1.000000" stroke="none" 
	d="
M160.652359,450.817230 
	C161.005142,452.528595 159.944611,452.967773 158.319366,453.077026 
	C158.231796,451.666504 159.175629,451.063416 160.652359,450.817230 
z"/>
<path fill="#B1998B" opacity="1.000000" stroke="none" 
	d="
M1252.839844,333.365479 
	C1253.047852,337.722107 1252.220947,341.501801 1250.961670,345.311157 
	C1249.526611,340.505737 1250.303589,335.561401 1250.126587,330.692993 
	C1250.099976,329.962341 1250.706543,329.354614 1251.389404,329.595734 
	C1252.960083,330.150330 1252.776978,331.630829 1252.839844,333.365479 
z"/>
<path fill="#B1998B" opacity="1.000000" stroke="none" 
	d="
M1246.507690,351.103180 
	C1250.410889,352.708466 1253.857300,352.534515 1257.306641,350.424286 
	C1256.727661,353.944916 1253.796021,354.404877 1251.150391,354.763153 
	C1248.363159,355.140594 1245.626953,354.082092 1244.458130,351.505493 
	C1243.723999,349.886902 1245.364258,350.531860 1246.507690,351.103180 
z"/>
<path fill="#98897E" opacity="1.000000" stroke="none" 
	d="
M1258.149414,339.163605 
	C1258.874390,337.556335 1259.672241,336.385986 1261.237671,337.440460 
	C1262.223999,338.104828 1262.701538,339.249176 1262.361938,340.479095 
	C1262.090820,341.461456 1261.443481,342.434570 1260.417847,342.506531 
	C1258.373657,342.649902 1258.126099,341.104187 1258.149414,339.163605 
z"/>
<path fill="#98897E" opacity="1.000000" stroke="none" 
	d="
M1242.555786,337.317444 
	C1244.198120,339.128540 1244.475342,340.815704 1242.752197,342.255829 
	C1241.811401,343.042084 1240.662720,342.480835 1240.371948,341.472961 
	C1239.848999,339.659912 1239.024658,337.459961 1242.555786,337.317444 
z"/>
<path fill="#B1998B" opacity="1.000000" stroke="none" 
	d="
M1277.906006,342.593262 
	C1276.536011,344.247070 1275.463379,343.280701 1275.230225,342.227325 
	C1274.770630,340.150238 1276.241821,339.023529 1278.011841,338.177094 
	C1279.502319,339.634033 1277.456787,340.938354 1277.906006,342.593262 
z"/>
<path fill="#B1998B" opacity="1.000000" stroke="none" 
	d="
M1263.594727,328.183960 
	C1264.457031,329.250397 1265.806519,330.573334 1263.505737,330.445587 
	C1262.093994,330.367188 1260.753418,329.006470 1259.145142,328.086761 
	C1260.799194,326.519348 1262.065063,327.117462 1263.594727,328.183960 
z"/>
<path fill="#98897E" opacity="1.000000" stroke="none" 
	d="
M1223.432861,342.508362 
	C1222.929199,341.018433 1222.648560,339.797668 1222.327637,338.401886 
	C1226.201172,340.764252 1226.343506,341.310333 1223.432861,342.508362 
z"/>
<path fill="#727171" opacity="1.000000" stroke="none" 
	d="
M49.790741,349.669983 
	C52.710327,348.643250 54.081669,350.133484 55.118900,352.196899 
	C55.759007,353.470245 55.806068,354.684967 54.753044,355.831451 
	C53.150703,357.576050 51.245552,358.736969 49.192635,356.964966 
	C46.532043,354.668335 46.931068,352.135925 49.790741,349.669983 
z"/>
<path fill="#727171" opacity="1.000000" stroke="none" 
	d="
M38.898369,351.886292 
	C42.256283,353.082642 43.648956,354.931915 41.467564,357.908722 
	C40.624367,359.059357 39.180000,359.359955 37.834145,358.877869 
	C36.360058,358.349854 35.137260,357.299896 35.220200,355.604462 
	C35.317562,353.614227 36.286785,352.127869 38.898369,351.886292 
z"/>
<path fill="#727171" opacity="1.000000" stroke="none" 
	d="
M66.370522,350.868225 
	C68.499222,353.186920 68.750954,355.388489 66.103859,356.750122 
	C64.272636,357.692078 62.291435,356.672150 62.069038,354.551880 
	C61.800472,351.991333 62.876720,350.046112 66.370522,350.868225 
z"/>
<path fill="#CECECF" opacity="1.000000" stroke="none" 
	d="
M127.136368,409.204529 
	C127.950310,409.936188 128.937363,410.731110 127.402092,410.977112 
	C125.419647,411.294800 123.351807,411.477142 120.845619,410.299896 
	C123.030510,408.592163 124.876999,408.684540 127.136368,409.204529 
z"/>
</svg>