<svg id="visual" viewBox="0 0 1519 712" width="1519" height="712" xmlns="http://www.w3.org/2000/svg" xmlns:xlink="http://www.w3.org/1999/xlink" version="1.1"><rect x="0" y="0" width="1519" height="712" fill="#098b05"></rect><path d="M0 539L63.3 555.5C126.7 572 253.3 605 380 600.5C506.7 596 633.3 554 759.8 541C886.3 528 1012.7 544 1139.2 560.3C1265.7 576.7 1392.3 593.3 1455.7 601.7L1519 610L1519 713L1455.7 713C1392.3 713 1265.7 713 1139.2 713C1012.7 713 886.3 713 759.8 713C633.3 713 506.7 713 380 713C253.3 713 126.7 713 63.3 713L0 713Z" fill="#ffffff" stroke-linecap="round" stroke-linejoin="miter"></path></svg>